<svg width="96" height="96" viewBox="0 0 96 96" fill="none" xmlns="http://www.w3.org/2000/svg">
<g clip-path="url(#clip0_3523_1121)">
<path d="M62.0001 56.0006H58.8401L57.7201 54.9206C62.5201 49.3206 65.0001 41.6806 63.6401 33.5606C61.7601 22.4406 52.4801 13.6006 41.3201 12.2006C26.1601 10.3206 13.2001 21.5206 12.1201 36.0006H20.2001C21.1601 27.5206 27.8801 20.8006 36.4401 20.0806C46.6001 19.2006 56.0001 27.8006 56.0001 38.0006C56.0001 47.9606 47.9601 56.0006 38.0001 56.0006C37.3201 56.0006 36.6801 55.8806 36.0001 55.8006V63.8806C36.0001 63.8806 36.0001 63.8806 36.0401 63.9206C43.2401 64.4406 49.9201 62.0406 54.9201 57.7206L56.0001 58.8406V62.0006L73.0001 79.0006C74.6401 80.6406 77.3201 80.6406 78.9601 79.0006C80.6001 77.3606 80.6001 74.6806 78.9601 73.0406L62.0001 56.0006Z" fill="#ADADAD"/>
<path d="M24.4801 44.6801L16.0001 53.1601L7.52008 44.6801C6.72008 43.8801 5.48008 43.8801 4.68008 44.6801C3.88008 45.4801 3.88008 46.7201 4.68008 47.5201L13.1601 56.0001L4.68008 64.4801C3.88008 65.2801 3.88008 66.5201 4.68008 67.3201C5.48008 68.1201 6.72008 68.1201 7.52008 67.3201L16.0001 58.8401L24.4801 67.3201C25.2801 68.1201 26.5201 68.1201 27.3201 67.3201C28.1201 66.5201 28.1201 65.2801 27.3201 64.4801L18.8401 56.0001L27.3201 47.5201C28.1201 46.7201 28.1201 45.4801 27.3201 44.6801C26.5201 43.9201 25.2801 43.9201 24.4801 44.6801Z" fill="#ADADAD"/>
</g>
<defs>
<clipPath id="clip0_3523_1121">
<rect width="96" height="96" fill="white"/>
</clipPath>
</defs>
</svg>
